<?xml version="1.0"?>
<svg xmlns="http://www.w3.org/2000/svg" version="1.2" baseProfile="tiny" width="300" height="31" viewBox="0 0 300 31" stroke-linecap="butt" stroke-linejoin="round">
<style>
  path {shape-rendering: crispEdges;}
</style>
<g id="layer32">
<path d="M 1 10.93 1 1 50.67 1 50.67 10.93 1 10.93 Z" fill="#feedde"/>
<path d="M 50.67 10.93 50.67 1 100.33 1 100.33 10.93 50.67 10.93 Z" fill="#fdd0a2"/>
<path d="M 100.33 10.93 100.33 1 150 1 150 10.93 100.33 10.93 Z" fill="#fdae6b"/>
<path d="M 150 10.93 150 1 199.67 1 199.67 10.93 150 10.93 Z" fill="#fd8d3c"/>
<path d="M 199.67 10.93 199.67 1 249.33 1 249.33 10.93 199.67 10.93 Z" fill="#e6550d"/>
<path d="M 249.33 10.93 249.33 1 299 1 299 10.93 249.33 10.93 Z" fill="#a63603"/>
</g>
<g id="layer33" fill="none" stroke="black" stroke-width="1">
<path d="M 50.67 1 50.67 16.89" stroke="rgba(0,0,0,0.3)"/>
<path d="M 100.33 1 100.33 16.89" stroke="rgba(0,0,0,0.3)"/>
<path d="M 150 1 150 16.89" stroke="rgba(0,0,0,0.3)"/>
<path d="M 199.67 1 199.67 16.89" stroke="rgba(0,0,0,0.3)"/>
<path d="M 249.33 1 249.33 16.89" stroke="rgba(0,0,0,0.3)"/>
</g>
<g id="layer34" font-family="sans-serif" font-size="12" text-anchor="middle">
<text y="0" x="0" transform="translate(50.7 29.9)" font-family="sans-serif" font-size="13" text-anchor="middle" fill="#555">0</text>
<text y="0" x="0" transform="translate(100.3 29.9)" font-family="sans-serif" font-size="13" text-anchor="middle" fill="#555">0.03</text>
<text y="0" x="0" transform="translate(150 29.9)" font-family="sans-serif" font-size="13" text-anchor="middle" fill="#555">0.1</text>
<text y="0" x="0" transform="translate(199.7 29.9)" font-family="sans-serif" font-size="13" text-anchor="middle" fill="#555">0.5</text>
<text y="0" x="0" transform="translate(249.3 29.9)" font-family="sans-serif" font-size="13" text-anchor="middle" fill="#555">2.18</text>
</g>
</svg>